# xmcd
#
# Track frame offsets:
#	150
#	15355
#	30764
#	43098
#	58532
#	72086
#	86115
#	99318
#	111467
#	125946
#
# Disc length: 1808 seconds
#
# Revision: 0
# Processed by: cddbd v1.4PL0 Copyright (c) Steve Scherf et al.
# Submitted via: audiograbber 1.81.03
#
DISCID=7e070e0a
DTITLE=Kim Kalman - Moonlight
DYEAR=2000
DGENRE=Country
TTITLE0=Move Me With Your Heart
TTITLE1=We Could Teach Cupid
TTITLE2=Kiss of Til Then
TTITLE3=Blame It On the Moonlight
TTITLE4=Strong and Tall
TTITLE5=Only Old Lovers
TTITLE6=Ain't That Love
TTITLE7=Roses In December
TTITLE8=Til Angels Sleep
TTITLE9=Life's Too Short
EXTD=Independent singer/songwriter from North Carolina, USA.
EXTT0=
EXTT1=
EXTT2=
EXTT3=
EXTT4=
EXTT5=
EXTT6=
EXTT7=
EXTT8=
EXTT9=
PLAYORDER=
